<?xml version="1.0" encoding="UTF-8" standalone="no"?>
<!-- Generator: Adobe Illustrator 14.0.0, SVG Export Plug-In . SVG Version: 6.00 Build 43363)  -->

<svg
   xmlns:dc="http://purl.org/dc/elements/1.1/"
   xmlns:cc="http://creativecommons.org/ns#"
   xmlns:rdf="http://www.w3.org/1999/02/22-rdf-syntax-ns#"
   xmlns:svg="http://www.w3.org/2000/svg"
   xmlns="http://www.w3.org/2000/svg"
   xmlns:sodipodi="http://sodipodi.sourceforge.net/DTD/sodipodi-0.dtd"
   xmlns:inkscape="http://www.inkscape.org/namespaces/inkscape"
   version="1.0"
   id="Layer_1"
   x="0px"
   y="0px"
   width="100"
   height="100"
   viewBox="0 0 99.999999 100"
   enable-background="new 0 0 76.207 100"
   xml:space="preserve"
   inkscape:version="0.48.2 r9819"
   sodipodi:docname="clear_night.svg"><metadata
   id="metadata9"><rdf:RDF><cc:Work
       rdf:about=""><dc:format>image/svg+xml</dc:format><dc:type
         rdf:resource="http://purl.org/dc/dcmitype/StillImage" /></cc:Work></rdf:RDF></metadata><defs
   id="defs7" /><sodipodi:namedview
   pagecolor="#ffffff"
   bordercolor="#666666"
   borderopacity="1"
   objecttolerance="10"
   gridtolerance="10"
   guidetolerance="10"
   inkscape:pageopacity="0"
   inkscape:pageshadow="2"
   inkscape:window-width="640"
   inkscape:window-height="480"
   id="namedview5"
   showgrid="false"
   inkscape:zoom="2.36"
   inkscape:cx="38.1035"
   inkscape:cy="50"
   inkscape:window-x="0"
   inkscape:window-y="0"
   inkscape:window-maximized="0"
   inkscape:current-layer="Layer_1" />
<path
   d="m 58.050848,94.067797 c -24.065339,0 -43.644068,-19.578729 -43.644068,-43.644068 0,-24.065339 19.578729,-43.6440684 43.644068,-43.6440684 4.190703,0 8.357839,0.603161 12.38444,1.792899 l 10.491161,3.1004744 -10.491161,3.100475 c -15.676949,4.632381 -26.626372,19.292424 -26.626372,35.65022 0,16.356924 10.949423,31.016093 26.6255,35.648475 l 10.487669,3.097856 -10.486797,3.103093 c -4.027474,1.19061 -8.193737,1.794644 -12.38444,1.794644 l 0,0 z m 0,-80.822703 c -20.500492,0 -37.177763,16.679017 -37.177763,37.178635 0,20.499619 16.677271,37.178636 37.177763,37.178636 0.03753,0 0.07507,0 0.113474,0 C 45.518017,79.783094 37.343483,65.736687 37.343483,50.423729 c 0,-15.312085 8.174534,-29.357618 20.819094,-37.178635 -0.03841,0 -0.07507,0 -0.111729,0 l 0,0 z"
   id="path3"
   inkscape:connector-curvature="0" />
</svg>