<?xml version="1.0" encoding="UTF-8" standalone="no"?>
<svg
   xmlns:dc="http://purl.org/dc/elements/1.1/"
   xmlns:cc="http://creativecommons.org/ns#"
   xmlns:rdf="http://www.w3.org/1999/02/22-rdf-syntax-ns#"
   xmlns:svg="http://www.w3.org/2000/svg"
   xmlns="http://www.w3.org/2000/svg"
   xmlns:sodipodi="http://sodipodi.sourceforge.net/DTD/sodipodi-0.dtd"
   xmlns:inkscape="http://www.inkscape.org/namespaces/inkscape"
   version="1.1"
   width="100"
   height="100"
   viewBox="0 0 32 32"
   id="svg2"
   inkscape:version="0.48.2 r9819"
   sodipodi:docname="cloud.svg">
  <metadata
     id="metadata9">
    <rdf:RDF>
      <cc:Work
         rdf:about="">
        <dc:format>image/svg+xml</dc:format>
        <dc:type
           rdf:resource="http://purl.org/dc/dcmitype/StillImage" />
      </cc:Work>
    </rdf:RDF>
  </metadata>
  <defs
     id="defs7" />
  <sodipodi:namedview
     pagecolor="#ffffff"
     bordercolor="#666666"
     borderopacity="1"
     objecttolerance="10"
     gridtolerance="10"
     guidetolerance="10"
     inkscape:pageopacity="0"
     inkscape:pageshadow="2"
     inkscape:window-width="640"
     inkscape:window-height="480"
     id="namedview5"
     showgrid="false"
     inkscape:zoom="2.36"
     inkscape:cx="50"
     inkscape:cy="50"
     inkscape:window-x="0"
     inkscape:window-y="0"
     inkscape:window-maximized="0"
     inkscape:current-layer="svg2" />
  <path
     id="cloudy"
     d="m 30.356711,18.309334 c 0.593939,-0.994529 0.936641,-2.153462 0.936641,-3.394597 0,-3.670148 -2.985903,-6.6572084 -6.657209,-6.6572084 -0.04284,0 -0.08452,0 -0.126198,0.00232 -1.422906,-2.162729 -3.834552,-3.4756464 -6.458071,-3.4756464 -1.316391,0 -2.588786,0.329966 -3.732668,0.9597958 C 13.024813,5.0678572 11.590329,4.7124201 10.128058,4.7124201 5.1206792,4.7112623 1.0464672,8.7854742 1.0464672,13.792852 c 0,1.535211 0.3971171,2.973168 1.0744157,4.240932 -1.18208884,0.944745 -1.94274729,2.397753 -1.94274729,4.026743 0,2.842339 2.31323549,5.155574 5.15557419,5.155574 H 26.860229 c 2.843497,0 5.15789,-2.313235 5.15789,-5.155574 -0.0012,-1.479637 -0.65067,-2.808763 -1.661408,-3.751193 z M 3.3620182,13.792852 c 0,-3.730352 3.0356873,-6.7660388 6.7660398,-6.7660388 1.268922,0 2.511215,0.3600682 3.593735,1.041998 l 0.642566,0.4052214 0.627514,-0.4295347 c 0.904223,-0.6182521 1.962429,-0.9447448 3.060001,-0.9447448 2.028422,0 3.875074,1.1207267 4.811714,2.9256979 l 0.376277,0.72361 0.923905,-0.127355 c 0.1563,-0.022 0.310284,-0.04863 0.471215,-0.04863 2.393122,0 4.341658,1.947378 4.341658,4.341658 0,0.820863 -0.252395,1.573417 -0.651828,2.225244 -0.214188,-0.06368 -0.424903,-0.128513 -0.648354,-0.165562 -1.198298,-2.298184 -3.555528,-3.746561 -6.192941,-3.746561 -0.607832,0 -1.20756,0.07757 -1.788763,0.231555 -1.609308,-2.094416 -4.071896,-3.3205 -6.749831,-3.3205 -4.0672651,0 -7.5544852,2.921067 -8.3579813,6.820455 -0.1296709,0.01853 -0.2500795,0.06252 -0.3774348,0.09031 C 3.6757754,16.081774 3.3620182,14.974941 3.3620182,13.792852 z M 26.859072,24.90055 H 5.3325521 c -1.5664702,0 -2.8400232,-1.275868 -2.8400232,-2.840023 0,-1.564155 1.2712374,-2.83655 2.8249721,-2.83655 h 0.00463 l 1.3360729,0.08683 0.089149,-1.129989 c 0.2535528,-3.210511 2.9754832,-5.725199 6.1964141,-5.725199 2.178934,0 4.162203,1.116095 5.306085,2.984745 l 0.517526,0.846334 0.9158,-0.382066 c 0.569626,-0.23966 1.179773,-0.360068 1.802657,-0.360068 1.926538,0 3.631941,1.157775 4.343973,2.951169 l 0.287129,0.721294 0.775709,0.0093 c 1.549104,0.01852 2.808763,1.289761 2.808763,2.835392 0,1.562997 -1.275868,2.838865 -2.842338,2.838865 z"
     inkscape:connector-curvature="0" />
</svg>
