<svg xmlns="http://www.w3.org/2000/svg" version="1.1" width="100" height="100" viewBox="0 0 32 32">
	<path id="fog" d="M6.702,21.25h18.593c2.456,0,4.455-1.998,4.455-4.453   c0-2.202-1.63-4.051-3.748-4.393c-1.035-1.985-3.07-3.236-5.348-3.236c-0.526,0-1.045,0.067-1.547,0.2   C17.717,7.559,15.59,6.5,13.277,6.5c-3.513,0-6.525,2.523-7.219,5.891c-2.151,0.313-3.809,2.17-3.809,4.406   C2.25,19.252,4.247,21.25,6.702,21.25z M6.689,14.347h0.004l1.154,0.075l0.077-0.976c0.219-2.773,2.57-4.945,5.352-4.945   c1.882,0,3.595,0.964,4.583,2.578l0.447,0.731l0.791-0.33c0.492-0.207,1.019-0.311,1.557-0.311c1.664,0,3.137,1,3.752,2.549   l0.248,0.623l0.67,0.008c1.338,0.016,2.426,1.114,2.426,2.449c0,1.353-1.102,2.453-2.455,2.453H6.702   c-1.353,0-2.453-1.101-2.453-2.453C4.25,15.446,5.348,14.347,6.689,14.347z M25.295,22.25H6.702c-1.829,0-3.446-0.908-4.436-2.294   c0.086,2.38,2.036,4.294,4.437,4.294h18.592c2.402,0,4.354-1.915,4.439-4.296C28.744,21.341,27.125,22.25,25.295,22.25z    M25.295,25.25H6.702c-1.829,0-3.446-0.908-4.436-2.294c0.086,2.38,2.036,4.294,4.437,4.294h18.592   c2.402,0,4.354-1.915,4.439-4.296C28.744,24.341,27.125,25.25,25.295,25.25z M25.295,28.25H6.702c-1.829,0-3.446-0.908-4.436-2.294   c0.086,2.38,2.036,4.294,4.437,4.294h18.592c2.402,0,4.354-1.915,4.439-4.296C28.744,27.341,27.125,28.25,25.295,28.25z"/>
</svg>