<svg xmlns="http://www.w3.org/2000/svg" version="1.1" width="100" height="100" viewBox="0 0 32 32">
	<path id="snow3" d="M18.648,19.75H17.6l-0.367-0.637l0.524-0.908   c0.138-0.239,0.056-0.545-0.184-0.684c-0.239-0.142-0.546-0.059-0.683,0.184l-0.524,0.908h-0.735l-0.523-0.908   c-0.14-0.239-0.445-0.322-0.684-0.184c-0.239,0.139-0.321,0.441-0.183,0.684l0.524,0.909l-0.367,0.636h-1.049   c-0.276,0-0.5,0.225-0.5,0.5s0.224,0.5,0.5,0.5h1.049l0.367,0.636l-0.524,0.909c-0.139,0.239-0.057,0.545,0.183,0.684   c0.079,0.045,0.165,0.066,0.25,0.066c0.173,0,0.341-0.09,0.434-0.25l0.525-0.909h0.732l0.525,0.909   c0.092,0.16,0.26,0.25,0.434,0.25c0.085,0,0.171-0.021,0.249-0.066c0.239-0.139,0.321-0.441,0.184-0.684l-0.524-0.909L17.6,20.75   h1.051c0.275,0,0.5-0.225,0.5-0.5S18.926,19.75,18.648,19.75z M16.367,20.886h-0.734l-0.367-0.636l0.367-0.637h0.734l0.367,0.637   L16.367,20.886z M14.611,26.84h-1.049l-0.367-0.637l0.524-0.908c0.138-0.238,0.056-0.545-0.184-0.684   c-0.239-0.139-0.545-0.057-0.683,0.184l-0.524,0.908h-0.735l-0.523-0.908c-0.14-0.238-0.445-0.322-0.684-0.184   c-0.239,0.139-0.321,0.443-0.183,0.684l0.524,0.909L10.36,26.84H9.312c-0.276,0-0.5,0.225-0.5,0.5c0,0.276,0.224,0.5,0.5,0.5h1.049   l0.367,0.637l-0.524,0.908c-0.139,0.239-0.057,0.545,0.183,0.684c0.079,0.048,0.165,0.066,0.25,0.066   c0.173,0,0.341-0.09,0.434-0.25l0.525-0.908h0.732l0.525,0.908c0.093,0.16,0.261,0.25,0.434,0.25c0.085,0,0.171-0.021,0.249-0.066   c0.239-0.139,0.321-0.441,0.184-0.684l-0.525-0.908l0.367-0.637h1.05c0.276,0,0.5-0.224,0.5-0.5   C15.112,27.064,14.888,26.84,14.611,26.84z M12.329,27.977h-0.734l-0.367-0.637l0.367-0.637h0.734l0.367,0.637L12.329,27.977z    M26.002,12.404c-1.035-1.985-3.07-3.236-5.348-3.236c-0.526,0-1.045,0.067-1.547,0.2C17.717,7.559,15.59,6.5,13.277,6.5   c-3.513,0-6.525,2.523-7.219,5.891c-2.151,0.313-3.809,2.17-3.809,4.406c0,2.455,1.998,4.453,4.453,4.453h5.539   c-0.24-0.266-0.39-0.614-0.39-1s0.15-0.734,0.39-1H6.702c-1.353,0-2.453-1.102-2.453-2.453c0-1.351,1.098-2.45,2.44-2.45h0.004   l1.154,0.075l0.077-0.976c0.219-2.773,2.57-4.945,5.352-4.945c1.882,0,3.595,0.964,4.583,2.578l0.447,0.731l0.791-0.33   c0.492-0.207,1.019-0.311,1.557-0.311c1.664,0,3.137,1,3.752,2.549l0.248,0.623l0.67,0.008c1.338,0.016,2.426,1.114,2.426,2.449   c0,1.353-1.102,2.453-2.455,2.453h-5.561c0.195,0.213,0.345,0.47,0.392,0.769c0.036-0.022,0.06-0.062,0.099-0.086   c0.226-0.129,0.483-0.201,0.748-0.201c0.532,0,1.029,0.287,1.299,0.748l0.027,0.047l0.025-0.043   c0.267-0.463,0.765-0.752,1.299-0.752c0.266,0,0.525,0.072,0.754,0.205c0.344,0.196,0.591,0.521,0.695,0.907   c0.035,0.136,0.046,0.271,0.045,0.406h0.178c2.456,0,4.455-1.998,4.455-4.453C29.75,14.595,28.12,12.746,26.002,12.404z    M24.948,23.027h-1.05l-0.366-0.637l0.524-0.908c0.137-0.239,0.055-0.545-0.187-0.686c-0.239-0.14-0.545-0.057-0.685,0.186   l-0.522,0.908H21.93l-0.521-0.908c-0.142-0.239-0.445-0.322-0.687-0.186c-0.238,0.141-0.32,0.443-0.183,0.686l0.524,0.908   l-0.367,0.637h-1.049c-0.276,0-0.5,0.224-0.5,0.5c0,0.273,0.224,0.5,0.5,0.5h1.049l0.367,0.636l-0.524,0.909   c-0.14,0.238-0.058,0.545,0.183,0.683c0.079,0.046,0.166,0.067,0.25,0.067c0.174,0,0.342-0.09,0.437-0.25l0.522-0.909h0.732   l0.525,0.909c0.093,0.16,0.261,0.25,0.434,0.25c0.085,0,0.171-0.021,0.249-0.067c0.239-0.138,0.321-0.442,0.185-0.683l-0.523-0.909   l0.365-0.636h1.052c0.274,0,0.5-0.227,0.5-0.5C25.448,23.251,25.225,23.027,24.948,23.027z M22.666,24.163h-0.734l-0.367-0.636   l0.367-0.637h0.734l0.367,0.637L22.666,24.163z"/>
</svg>