<?xml version="1.0" encoding="UTF-8" standalone="no"?>
<svg
   xmlns:dc="http://purl.org/dc/elements/1.1/"
   xmlns:cc="http://creativecommons.org/ns#"
   xmlns:rdf="http://www.w3.org/1999/02/22-rdf-syntax-ns#"
   xmlns:svg="http://www.w3.org/2000/svg"
   xmlns="http://www.w3.org/2000/svg"
   xmlns:sodipodi="http://sodipodi.sourceforge.net/DTD/sodipodi-0.dtd"
   xmlns:inkscape="http://www.inkscape.org/namespaces/inkscape"
   version="1.1"
   x="0px"
   y="0px"
   width="100px"
   height="100px"
   viewBox="-1 -1.167 100 100"
   overflow="visible"
   enable-background="new -1 -1.167 100 100"
   xml:space="preserve"
   id="svg2"
   inkscape:version="0.48.2 r9819"
   sodipodi:docname="sun.svg"><metadata
   id="metadata26"><rdf:RDF><cc:Work
       rdf:about=""><dc:format>image/svg+xml</dc:format><dc:type
         rdf:resource="http://purl.org/dc/dcmitype/StillImage" /></cc:Work></rdf:RDF></metadata><sodipodi:namedview
   pagecolor="#ffffff"
   bordercolor="#666666"
   borderopacity="1"
   objecttolerance="10"
   gridtolerance="10"
   guidetolerance="10"
   inkscape:pageopacity="0"
   inkscape:pageshadow="2"
   inkscape:window-width="640"
   inkscape:window-height="480"
   id="namedview24"
   showgrid="false"
   inkscape:zoom="2.36"
   inkscape:cx="50"
   inkscape:cy="50"
   inkscape:window-x="0"
   inkscape:window-y="0"
   inkscape:window-maximized="0"
   inkscape:current-layer="svg2" />
<defs
   id="defs4">
</defs>
<path
   d="m 49.212834,22.926354 c -1.591333,0 -2.880109,-1.288776 -2.880109,-2.880109 V 3.7275666 c 0,-1.5903632 1.288776,-2.88010897 2.880109,-2.88010897 1.590363,0 2.879139,1.28974577 2.879139,2.88010897 V 20.047214 c 0,1.590364 -1.288776,2.87914 -2.879139,2.87914 z"
   id="path6"
   inkscape:connector-curvature="0"
   style="fill:#000000" />
<path
   d="m 49.212834,95.881356 c -1.591333,0 -2.880109,-1.288776 -2.880109,-2.880109 V 76.683539 c 0,-1.590363 1.288776,-2.880109 2.880109,-2.880109 1.590363,0 2.879139,1.289746 2.879139,2.880109 v 16.318678 c 0,1.590363 -1.288776,2.879139 -2.879139,2.879139 z"
   id="path8"
   inkscape:connector-curvature="0"
   style="fill:#000000" />
<path
   d="M 93.850644,51.242576 H 77.530996 c -1.590363,0 -2.880109,-1.287806 -2.880109,-2.879139 0,-1.590363 1.289746,-2.880109 2.880109,-2.880109 h 16.319648 c 1.590363,0 2.880109,1.289746 2.880109,2.880109 -9.7e-4,1.591333 -1.290716,2.879139 -2.880109,2.879139 z"
   id="path10"
   inkscape:connector-curvature="0"
   style="fill:#000000" />
<path
   d="M 20.893702,51.242576 H 4.5740545 c -1.5903632,0 -2.8791392,-1.287806 -2.8791392,-2.878169 0,-1.590363 1.288776,-2.880109 2.8791392,-2.880109 H 20.893702 c 1.590363,0 2.880109,1.289746 2.880109,2.880109 0,1.590363 -1.289746,2.878169 -2.880109,2.878169 z"
   id="path12"
   inkscape:connector-curvature="0"
   style="fill:#000000" />
<path
   d="m 80.775725,82.808377 c -0.736998,0 -1.473995,-0.281223 -2.036441,-0.843669 L 67.200423,70.425848 c -1.124891,-1.124892 -1.124891,-2.947021 0,-4.070942 1.123922,-1.124891 2.947021,-1.124891 4.071912,0 l 11.539831,11.537891 c 1.124891,1.124891 1.124891,2.94799 0,4.071911 -0.561476,0.562446 -1.299443,0.843669 -2.036441,0.843669 z"
   id="path14"
   inkscape:connector-curvature="0"
   style="fill:#000000" />
<path
   d="m 29.189773,31.220486 c -0.736027,0 -1.473025,-0.281223 -2.035471,-0.843669 L 15.614472,18.837956 c -1.124891,-1.123921 -1.124891,-2.94702 0,-4.071911 1.124891,-1.124891 2.94799,-1.124891 4.072881,0 l 11.539831,11.538861 c 1.124891,1.123921 1.124891,2.94799 0,4.072881 -0.563415,0.561476 -1.300413,0.842699 -2.037411,0.842699 z"
   id="path16"
   inkscape:connector-curvature="0"
   style="fill:#000000" />
<path
   d="m 17.650913,82.810316 c -0.736998,0 -1.473996,-0.281223 -2.036441,-0.843668 -1.124891,-1.123922 -1.124891,-2.947021 0,-4.071912 L 27.153333,66.355875 c 1.124891,-1.124891 2.94702,-1.124891 4.071911,0 1.124891,1.123922 1.124891,2.946051 0,4.070942 l -11.53886,11.539831 c -0.560507,0.562445 -1.298474,0.843668 -2.035471,0.843668 z"
   id="path18"
   inkscape:connector-curvature="0"
   style="fill:#000000" />
<path
   d="m 69.238804,31.223395 c -0.736998,0 -1.474965,-0.281223 -2.036441,-0.843669 -1.124891,-1.123921 -1.124891,-2.94896 0,-4.072881 l 11.538861,-11.53983 c 1.124891,-1.125861 2.94799,-1.125861 4.071911,0 1.124891,1.123921 1.124891,2.94799 0,4.071911 l -11.53886,11.539831 c -0.562446,0.563415 -1.298474,0.844638 -2.035471,0.844638 z"
   id="path20"
   inkscape:connector-curvature="0"
   style="fill:#000000" />
<path
   d="m 49.212834,67.14039 c -10.351907,0 -18.775013,-8.423107 -18.775013,-18.775983 0,-10.351907 8.423106,-18.775013 18.775013,-18.775013 10.352876,0 18.775013,8.423106 18.775013,18.775013 0,10.352876 -8.422137,18.775983 -18.775013,18.775983 z m 0,-31.790779 c -7.176999,0 -13.015765,5.837797 -13.015765,13.014796 0,7.176029 5.838766,13.015765 13.015765,13.015765 7.176999,0 13.014795,-5.838766 13.014795,-13.015765 0,-7.176999 -5.837796,-13.014796 -13.014795,-13.014796 z"
   id="path22"
   inkscape:connector-curvature="0"
   style="fill:#000000" />
</svg>