<svg xmlns="http://www.w3.org/2000/svg" version="1.1" width="100" height="100" viewBox="0 0 32 32">
	<path id="thunder_1_" d="M26.002,12.404c-1.035-1.985-3.07-3.236-5.348-3.236   c-0.526,0-1.045,0.067-1.547,0.2C17.717,7.559,15.59,6.5,13.277,6.5c-3.513,0-6.525,2.523-7.219,5.891   c-2.151,0.313-3.809,2.17-3.809,4.406c0,2.455,1.998,4.453,4.453,4.453h2.725l-0.102-0.102c-0.228-0.229-0.332-0.551-0.28-0.867   c0.052-0.317,0.252-0.592,0.54-0.734l0.594-0.297H6.702c-1.353,0-2.453-1.102-2.453-2.453c0-1.351,1.098-2.45,2.44-2.45h0.004   l1.154,0.075l0.077-0.976c0.219-2.773,2.57-4.945,5.352-4.945c1.882,0,3.595,0.964,4.583,2.578l0.447,0.731l0.791-0.33   c0.492-0.207,1.019-0.311,1.557-0.311c1.664,0,3.137,1,3.752,2.549l0.248,0.623l0.67,0.008c1.338,0.016,2.426,1.114,2.426,2.449   c0,1.353-1.102,2.453-2.455,2.453h-6.09l-1.191,1.19l0.812,0.81h6.473c2.456,0,4.455-1.998,4.455-4.453   C29.75,14.595,28.12,12.746,26.002,12.404z M23.166,13.875l-13.133,6.566l3.283,3.283L6.75,30.291l13.133-6.566L16.6,20.441   L23.166,13.875z"/>
</svg>